<svg width="105" height="94" viewBox="0 0 105 94" fill="none" xmlns="http://www.w3.org/2000/svg">
<rect x="16" y="21" width="68" height="52.9324" fill="#C80101"/>
<path d="M52.5 0C38.5761 0 25.2226 4.92518 15.3769 13.692C5.53124 22.4589 0 34.3494 0 46.7476C0 59.1458 5.53124 71.0362 15.3769 79.8031C25.2226 88.57 38.5761 93.4952 52.5 93.4952C66.4239 93.4952 79.7774 88.57 89.6231 79.8031C99.4688 71.0362 105 59.1458 105 46.7476C105 34.3494 99.4688 22.4589 89.6231 13.692C79.7774 4.92518 66.4239 0 52.5 0ZM27.6855 44.0085C25.7578 42.292 25.7578 39.5163 27.6855 37.8181C29.6133 36.1198 32.7305 36.1016 34.6377 37.8181L52.4795 53.7049L70.3213 37.8181C72.249 36.1016 75.3662 36.1016 77.2734 37.8181C79.1807 39.5346 79.2012 42.3102 77.2734 44.0085L55.9863 62.9997C54.0586 64.7162 50.9414 64.7162 49.0342 62.9997L27.6855 44.0085Z" fill="black"/>
</svg>
