{
	"asset":{
		"generator":"Khronos glTF Blender I/O v4.2.57",
		"version":"2.0"
	},
	"extensionsUsed":[
		"KHR_materials_clearcoat"
	],
	"scene":0,
	"scenes":[
		{
			"name":"Scene",
			"nodes":[
				30,
				31,
				32,
				33,
				34
			]
		}
	],
	"nodes":[
		{
			"mesh":0,
			"name":"Sphere",
			"scale":[
				0.09691881388425827,
				0.09691881388425827,
				0.09691881388425827
			],
			"translation":[
				0,
				0,
				-0.9746264815330505
			]
		},
		{
			"mesh":0,
			"name":"Sphere",
			"scale":[
				0.09691881388425827,
				0.09691881388425827,
				0.09691881388425827
			],
			"translation":[
				-0.37297341227531433,
				0,
				-0.9004374146461487
			]
		},
		{
			"mesh":0,
			"name":"Sphere",
			"scale":[
				0.09691881388425827,
				0.09691881388425827,
				0.09691881388425827
			],
			"translation":[
				-0.6891649961471558,
				0,
				-0.6891649961471558
			]
		},
		{
			"mesh":0,
			"name":"Sphere",
			"scale":[
				0.09691881388425827,
				0.09691881388425827,
				0.09691881388425827
			],
			"translation":[
				-0.9004374146461487,
				0,
				-0.37297338247299194
			]
		},
		{
			"mesh":0,
			"name":"Sphere",
			"scale":[
				0.09691881388425827,
				0.09691881388425827,
				0.09691881388425827
			],
			"translation":[
				-0.9746264815330505,
				0,
				0
			]
		},
		{
			"mesh":0,
			"name":"Sphere",
			"scale":[
				0.09691881388425827,
				0.09691881388425827,
				0.09691881388425827
			],
			"translation":[
				-0.9054725766181946,
				-0.0083597581833601,
				0.39232587814331055
			]
		},
		{
			"mesh":0,
			"name":"Sphere",
			"scale":[
				0.09691881388425827,
				0.09691881388425827,
				0.09691881388425827
			],
			"translation":[
				-0.37297338247299194,
				0,
				0.9004374146461487
			]
		},
		{
			"mesh":0,
			"name":"Sphere",
			"scale":[
				0.09691881388425827,
				0.09691881388425827,
				0.09691881388425827
			],
			"translation":[
				0,
				0,
				0.9746264815330505
			]
		},
		{
			"mesh":0,
			"name":"Sphere",
			"scale":[
				0.09691881388425827,
				0.09691881388425827,
				0.09691881388425827
			],
			"translation":[
				0.37297341227531433,
				0,
				0.9004374146461487
			]
		},
		{
			"mesh":0,
			"name":"Sphere",
			"scale":[
				0.09691881388425827,
				0.09691881388425827,
				0.09691881388425827
			],
			"translation":[
				0.6891649961471558,
				0,
				0.6891649961471558
			]
		},
		{
			"mesh":0,
			"name":"Sphere",
			"scale":[
				0.09691881388425827,
				0.09691881388425827,
				0.09691881388425827
			],
			"translation":[
				0.9004374146461487,
				0,
				0.37297338247299194
			]
		},
		{
			"mesh":0,
			"name":"Sphere",
			"scale":[
				0.09691881388425827,
				0.09691881388425827,
				0.09691881388425827
			],
			"translation":[
				0.9746264815330505,
				0,
				0
			]
		},
		{
			"mesh":0,
			"name":"Sphere",
			"scale":[
				0.09691881388425827,
				0.09691881388425827,
				0.09691881388425827
			],
			"translation":[
				0.9004374146461487,
				0,
				-0.37297341227531433
			]
		},
		{
			"mesh":0,
			"name":"Sphere",
			"scale":[
				0.09691881388425827,
				0.09691881388425827,
				0.09691881388425827
			],
			"translation":[
				0.6891649961471558,
				0,
				-0.6891649961471558
			]
		},
		{
			"mesh":0,
			"name":"Sphere",
			"scale":[
				0.09691881388425827,
				0.09691881388425827,
				0.09691881388425827
			],
			"translation":[
				0.37297338247299194,
				0,
				-0.9004374146461487
			]
		},
		{
			"mesh":0,
			"name":"Sphere",
			"scale":[
				0.09691881388425827,
				0.09691881388425827,
				0.09691881388425827
			],
			"translation":[
				-0.19012798368930817,
				0,
				-0.9558377861976624
			]
		},
		{
			"mesh":0,
			"name":"Sphere",
			"scale":[
				0.09691881388425827,
				0.09691881388425827,
				0.09691881388425827
			],
			"translation":[
				-0.541438639163971,
				0,
				-0.8103200793266296
			]
		},
		{
			"mesh":0,
			"name":"Sphere",
			"scale":[
				0.09691881388425827,
				0.09691881388425827,
				0.09691881388425827
			],
			"translation":[
				-0.8103200793266296,
				0,
				-0.541438639163971
			]
		},
		{
			"mesh":0,
			"name":"Sphere",
			"scale":[
				0.09691881388425827,
				0.09691881388425827,
				0.09691881388425827
			],
			"translation":[
				-0.9558377861976624,
				0,
				-0.19012796878814697
			]
		},
		{
			"mesh":0,
			"name":"Sphere",
			"scale":[
				0.09691881388425827,
				0.09691881388425827,
				0.09691881388425827
			],
			"translation":[
				-0.9558377861976624,
				0,
				0.19012798368930817
			]
		},
		{
			"mesh":0,
			"name":"Sphere",
			"scale":[
				0.09691881388425827,
				0.09691881388425827,
				0.09691881388425827
			],
			"translation":[
				-0.5464289784431458,
				-0.0033726177643984556,
				0.8135361671447754
			]
		},
		{
			"mesh":0,
			"name":"Sphere",
			"scale":[
				0.09691881388425827,
				0.09691881388425827,
				0.09691881388425827
			],
			"translation":[
				-0.19012796878814697,
				0,
				0.9558377861976624
			]
		},
		{
			"mesh":0,
			"name":"Sphere",
			"scale":[
				0.09691881388425827,
				0.09691881388425827,
				0.09691881388425827
			],
			"translation":[
				0.19012798368930817,
				0,
				0.9558377861976624
			]
		},
		{
			"mesh":0,
			"name":"Sphere",
			"scale":[
				0.09691881388425827,
				0.09691881388425827,
				0.09691881388425827
			],
			"translation":[
				0.541438639163971,
				0,
				0.8103200793266296
			]
		},
		{
			"mesh":0,
			"name":"Sphere",
			"scale":[
				0.09691881388425827,
				0.09691881388425827,
				0.09691881388425827
			],
			"translation":[
				0.8103200793266296,
				0,
				0.541438639163971
			]
		},
		{
			"mesh":0,
			"name":"Sphere",
			"scale":[
				0.09691881388425827,
				0.09691881388425827,
				0.09691881388425827
			],
			"translation":[
				0.9558377861976624,
				0,
				0.19012796878814697
			]
		},
		{
			"mesh":0,
			"name":"Sphere",
			"scale":[
				0.09691881388425827,
				0.09691881388425827,
				0.09691881388425827
			],
			"translation":[
				0.9558377861976624,
				0,
				-0.19012798368930817
			]
		},
		{
			"mesh":0,
			"name":"Sphere",
			"scale":[
				0.09691881388425827,
				0.09691881388425827,
				0.09691881388425827
			],
			"translation":[
				0.8103200793266296,
				0,
				-0.541438639163971
			]
		},
		{
			"mesh":0,
			"name":"Sphere",
			"scale":[
				0.09691881388425827,
				0.09691881388425827,
				0.09691881388425827
			],
			"translation":[
				0.541438639163971,
				0,
				-0.8103200793266296
			]
		},
		{
			"mesh":0,
			"name":"Sphere",
			"scale":[
				0.09691881388425827,
				0.09691881388425827,
				0.09691881388425827
			],
			"translation":[
				0.19012796878814697,
				0,
				-0.9558377861976624
			]
		},
		{
			"children":[
				0,
				1,
				2,
				3,
				4,
				5,
				6,
				7,
				8,
				9,
				10,
				11,
				12,
				13,
				14,
				15,
				16,
				17,
				18,
				19,
				20,
				21,
				22,
				23,
				24,
				25,
				26,
				27,
				28,
				29
			],
			"name":"Circle"
		},
		{
			"mesh":1,
			"name":"Torus.001",
			"scale":[
				0.9848954081535339,
				0.9848954081535339,
				0.9848954081535339
			],
			"translation":[
				-0.009166508913040161,
				-0.005955822765827179,
				-0.013461630791425705
			]
		},
		{
			"mesh":2,
			"name":"Cube",
			"rotation":[
				0,
				-0.4541897773742676,
				0,
				0.89090496301651
			],
			"scale":[
				0.1665145754814148,
				0.06430487334728241,
				0.09419074654579163
			],
			"translation":[
				-0.7597774267196655,
				0.015754852443933487,
				0.6220690608024597
			]
		},
		{
			"mesh":3,
			"name":"Cylinder.002",
			"rotation":[
				0.3203774690628052,
				-0.3203774690628052,
				-0.6303636431694031,
				0.6303636431694031
			],
			"scale":[
				0.04580473527312279,
				0.004145707003772259,
				0.0748305395245552
			],
			"translation":[
				-0.8721465468406677,
				-0.007586266845464706,
				0.48889946937561035
			]
		},
		{
			"mesh":4,
			"name":"Cylinder.001",
			"rotation":[
				0.31116917729377747,
				-0.29051119089126587,
				-0.6446729302406311,
				0.6349597573280334
			],
			"scale":[
				0.04580473154783249,
				0.004516374319791794,
				0.0836058035492897
			],
			"translation":[
				-0.618746280670166,
				-0.0031158688943833113,
				0.7357333898544312
			]
		}
	],
	"materials":[
		{
			"doubleSided":true,
			"extensions":{
				"KHR_materials_clearcoat":{
					"clearcoatRoughnessFactor":0
				}
			},
			"name":"Material.003",
			"pbrMetallicRoughness":{
				"baseColorFactor":[
					0,
					0,
					0,
					1
				],
				"metallicFactor":0.5433070659637451,
				"roughnessFactor":0.33464568853378296
			}
		},
		{
			"doubleSided":true,
			"name":"Material.004",
			"pbrMetallicRoughness":{
				"baseColorFactor":[
					0.09190329909324646,
					0.09190329909324646,
					0.09190329909324646,
					1
				],
				"metallicFactor":0,
				"roughnessFactor":0.5
			}
		},
		{
			"doubleSided":true,
			"name":"Material.001",
			"pbrMetallicRoughness":{
				"baseColorFactor":[
					0.003538780612871051,
					0.003538780612871051,
					0.003538780612871051,
					1
				],
				"roughnessFactor":0.586614191532135
			}
		},
		{
			"doubleSided":true,
			"name":"Material.007",
			"pbrMetallicRoughness":{
				"baseColorFactor":[
					0.8000229597091675,
					0.6050615906715393,
					0.013663160614669323,
					1
				],
				"roughnessFactor":0.28740155696868896
			}
		},
		{
			"doubleSided":true,
			"name":"Material.008",
			"pbrMetallicRoughness":{
				"baseColorFactor":[
					0.8000156879425049,
					0.6266864538192749,
					0.004868455231189728,
					1
				],
				"roughnessFactor":0.28740155696868896
			}
		}
	],
	"meshes":[
		{
			"name":"Sphere",
			"primitives":[
				{
					"attributes":{
						"POSITION":0,
						"NORMAL":1,
						"TEXCOORD_0":2
					},
					"indices":3,
					"material":0
				}
			]
		},
		{
			"name":"Torus.001",
			"primitives":[
				{
					"attributes":{
						"POSITION":4,
						"NORMAL":5,
						"TEXCOORD_0":6
					},
					"indices":7,
					"material":1
				}
			]
		},
		{
			"name":"Cube.001",
			"primitives":[
				{
					"attributes":{
						"POSITION":8,
						"NORMAL":9,
						"TEXCOORD_0":10
					},
					"indices":11,
					"material":2
				}
			]
		},
		{
			"name":"Cylinder.003",
			"primitives":[
				{
					"attributes":{
						"POSITION":12,
						"NORMAL":13,
						"TEXCOORD_0":14
					},
					"indices":15,
					"material":3
				}
			]
		},
		{
			"name":"Cylinder.004",
			"primitives":[
				{
					"attributes":{
						"POSITION":16,
						"NORMAL":17,
						"TEXCOORD_0":18
					},
					"indices":15,
					"material":4
				}
			]
		}
	],
	"accessors":[
		{
			"bufferView":0,
			"componentType":5126,
			"count":559,
			"max":[
				0.9999997019767761,
				1,
				0.9999993443489075
			],
			"min":[
				-0.9999990463256836,
				-1,
				-1
			],
			"type":"VEC3"
		},
		{
			"bufferView":1,
			"componentType":5126,
			"count":559,
			"type":"VEC3"
		},
		{
			"bufferView":2,
			"componentType":5126,
			"count":559,
			"type":"VEC2"
		},
		{
			"bufferView":3,
			"componentType":5123,
			"count":2880,
			"type":"SCALAR"
		},
		{
			"bufferView":4,
			"componentType":5126,
			"count":637,
			"max":[
				1.0099999904632568,
				0.01000000536441803,
				1.0099999904632568
			],
			"min":[
				-1.0099999904632568,
				-0.01000000536441803,
				-1.0099999904632568
			],
			"type":"VEC3"
		},
		{
			"bufferView":5,
			"componentType":5126,
			"count":637,
			"type":"VEC3"
		},
		{
			"bufferView":6,
			"componentType":5126,
			"count":637,
			"type":"VEC2"
		},
		{
			"bufferView":7,
			"componentType":5123,
			"count":3456,
			"type":"SCALAR"
		},
		{
			"bufferView":8,
			"componentType":5126,
			"count":168,
			"max":[
				1,
				1,
				1
			],
			"min":[
				-1,
				-1,
				-1
			],
			"type":"VEC3"
		},
		{
			"bufferView":9,
			"componentType":5126,
			"count":168,
			"type":"VEC3"
		},
		{
			"bufferView":10,
			"componentType":5126,
			"count":168,
			"type":"VEC2"
		},
		{
			"bufferView":11,
			"componentType":5123,
			"count":252,
			"type":"SCALAR"
		},
		{
			"bufferView":12,
			"componentType":5126,
			"count":66,
			"max":[
				0.9800000190734863,
				1.024999976158142,
				0.9800000190734863
			],
			"min":[
				-0.9800000190734863,
				-1.024999976158142,
				-0.9800000190734863
			],
			"type":"VEC3"
		},
		{
			"bufferView":13,
			"componentType":5126,
			"count":66,
			"type":"VEC3"
		},
		{
			"bufferView":14,
			"componentType":5126,
			"count":66,
			"type":"VEC2"
		},
		{
			"bufferView":15,
			"componentType":5123,
			"count":192,
			"type":"SCALAR"
		},
		{
			"bufferView":16,
			"componentType":5126,
			"count":66,
			"max":[
				0.9800000190734863,
				1.024999976158142,
				0.9800000190734863
			],
			"min":[
				-0.9800000190734863,
				-1.024999976158142,
				-0.9800000190734863
			],
			"type":"VEC3"
		},
		{
			"bufferView":17,
			"componentType":5126,
			"count":66,
			"type":"VEC3"
		},
		{
			"bufferView":18,
			"componentType":5126,
			"count":66,
			"type":"VEC2"
		}
	],
	"bufferViews":[
		{
			"buffer":0,
			"byteLength":6708,
			"byteOffset":0,
			"target":34962
		},
		{
			"buffer":0,
			"byteLength":6708,
			"byteOffset":6708,
			"target":34962
		},
		{
			"buffer":0,
			"byteLength":4472,
			"byteOffset":13416,
			"target":34962
		},
		{
			"buffer":0,
			"byteLength":5760,
			"byteOffset":17888,
			"target":34963
		},
		{
			"buffer":0,
			"byteLength":7644,
			"byteOffset":23648,
			"target":34962
		},
		{
			"buffer":0,
			"byteLength":7644,
			"byteOffset":31292,
			"target":34962
		},
		{
			"buffer":0,
			"byteLength":5096,
			"byteOffset":38936,
			"target":34962
		},
		{
			"buffer":0,
			"byteLength":6912,
			"byteOffset":44032,
			"target":34963
		},
		{
			"buffer":0,
			"byteLength":2016,
			"byteOffset":50944,
			"target":34962
		},
		{
			"buffer":0,
			"byteLength":2016,
			"byteOffset":52960,
			"target":34962
		},
		{
			"buffer":0,
			"byteLength":1344,
			"byteOffset":54976,
			"target":34962
		},
		{
			"buffer":0,
			"byteLength":504,
			"byteOffset":56320,
			"target":34963
		},
		{
			"buffer":0,
			"byteLength":792,
			"byteOffset":56824,
			"target":34962
		},
		{
			"buffer":0,
			"byteLength":792,
			"byteOffset":57616,
			"target":34962
		},
		{
			"buffer":0,
			"byteLength":528,
			"byteOffset":58408,
			"target":34962
		},
		{
			"buffer":0,
			"byteLength":384,
			"byteOffset":58936,
			"target":34963
		},
		{
			"buffer":0,
			"byteLength":792,
			"byteOffset":59320,
			"target":34962
		},
		{
			"buffer":0,
			"byteLength":792,
			"byteOffset":60112,
			"target":34962
		},
		{
			"buffer":0,
			"byteLength":528,
			"byteOffset":60904,
			"target":34962
		}
	],
	"buffers":[
		{
			"byteLength":61432,
			"uri":"final_band.bin"
		}
	]
}
