<svg width="440" height="956" viewBox="0 0 440 956" fill="none" xmlns="http://www.w3.org/2000/svg">
<g clip-path="url(#clip0_592_22)">
<rect width="440" height="956" fill="black"/>
<path d="M15.188 511L48.056 435.265H48.848L81.716 511H65.084L44.096 457.738L54.491 450.61L29.345 511H15.188ZM37.661 484.666H59.54L64.589 496.744H33.206L37.661 484.666ZM92.3376 438.136H106.693V497.14H140.947V511H92.3376V438.136ZM177.836 438.136C183.842 438.136 188.924 439.159 193.082 441.205C197.24 443.185 200.408 446.023 202.586 449.719C204.764 453.349 205.853 457.672 205.853 462.688C205.853 465.658 205.391 468.661 204.467 471.697C203.609 474.667 202.19 477.373 200.21 479.815C198.296 482.257 195.689 484.237 192.389 485.755C189.155 487.207 185.162 487.933 180.41 487.933H170.114V511H155.759V438.136H177.836ZM180.311 473.974C182.489 473.974 184.304 473.611 185.756 472.885C187.208 472.093 188.33 471.136 189.122 470.014C189.98 468.826 190.574 467.605 190.904 466.351C191.3 465.097 191.498 464.008 191.498 463.084C191.498 462.358 191.366 461.401 191.102 460.213C190.904 458.959 190.442 457.705 189.716 456.451C188.99 455.197 187.868 454.141 186.35 453.283C184.898 452.425 182.918 451.996 180.41 451.996H170.114V473.974H180.311ZM279.979 438.136V511H265.624V481.399H233.053V511H218.698V438.136H233.053V467.539H265.624V438.136H279.979ZM290.532 511L323.4 435.265H324.192L357.06 511H340.428L319.44 457.738L329.835 450.61L304.689 511H290.532ZM313.005 484.666H334.884L339.933 496.744H308.55L313.005 484.666ZM395.421 445.363H415.122V511H400.668V459.223H395.421V445.363Z" fill="#C80100"/>
<g filter="url(#filter0_d_592_22)">
<rect x="219" y="500" width="14" height="2660" fill="#C80101"/>
</g>
</g>
<defs>
<filter id="filter0_d_592_22" x="171.5" y="452.5" width="109" height="2755" filterUnits="userSpaceOnUse" color-interpolation-filters="sRGB">
<feFlood flood-opacity="0" result="BackgroundImageFix"/>
<feColorMatrix in="SourceAlpha" type="matrix" values="0 0 0 0 0 0 0 0 0 0 0 0 0 0 0 0 0 0 127 0" result="hardAlpha"/>
<feMorphology radius="5" operator="dilate" in="SourceAlpha" result="effect1_dropShadow_592_22"/>
<feOffset/>
<feGaussianBlur stdDeviation="21.25"/>
<feComposite in2="hardAlpha" operator="out"/>
<feColorMatrix type="matrix" values="0 0 0 0 0.784314 0 0 0 0 0.00392157 0 0 0 0 0.00392157 0 0 0 1 0"/>
<feBlend mode="normal" in2="BackgroundImageFix" result="effect1_dropShadow_592_22"/>
<feBlend mode="normal" in="SourceGraphic" in2="effect1_dropShadow_592_22" result="shape"/>
</filter>
<clipPath id="clip0_592_22">
<rect width="440" height="956" fill="white"/>
</clipPath>
</defs>
</svg>
